<?xml version="1.0" standalone="no"?><!DOCTYPE svg PUBLIC "-//W3C//DTD SVG 1.1//EN" "http://www.w3.org/Graphics/SVG/1.1/DTD/svg11.dtd"><svg xmlns:xlink="http://www.w3.org/1999/xlink" version="1.1" style="font-family:'lucida grande', 'lucida sans unicode', arial, helvetica, sans-serif;font-size:12px;" xmlns="http://www.w3.org/2000/svg" width="600" height="400"><desc>Created with Highcharts 4.2.3</desc><defs><clipPath id="highcharts-9"><rect x="0" y="0" width="580" height="375"></rect></clipPath></defs><rect x="0" y="0" width="600" height="400" fill="#FFFFFF" class=" highcharts-background"></rect><g class="highcharts-series-group" ><g class="highcharts-series highcharts-series-0"  transform="translate(10,10) scale(1 1)"><path fill="#7cb5ec" d="M 289.9638480063441 10.500003681596212 A 177.5 177.5 0 0 1 443.59499963807207 99.03469167040087 L 340.6863498805638 158.64144825123228 A 58.575 58.575 0 0 0 289.9880698420936 129.42500121492674 Z" stroke="#FFFFFF" stroke-width="1" stroke-linejoin="round" transform="translate(0,0)"></path><path fill="#434348" d="M 443.6838881340807 99.18833112709024 A 177.5 177.5 0 0 1 443.772622946214 276.6579406045589 L 340.74496557225063 217.25712039950446 A 58.575 58.575 0 0 0 340.7156830842466 158.69214927193977 Z" stroke="#FFFFFF" stroke-width="1" stroke-linejoin="round" transform="translate(0,0)"></path><path fill="#90ed7d" d="M 443.6838881340807 276.81166887290976 A 177.5 177.5 0 0 1 290.14134799115516 365.49994372040067 L 290.0466448370812 246.5749814277322 A 58.575 58.575 0 0 0 340.7156830842466 217.30785072806023 Z" stroke="#FFFFFF" stroke-width="1" stroke-linejoin="round" transform="translate(0,0)"></path><path fill="#f7a35c" d="M 289.9638480063441 365.49999631840376 A 177.5 177.5 0 0 1 136.36877340704243 276.90273457854556 L 239.301695224324 217.33790241092004 A 58.575 58.575 0 0 0 289.9880698420936 246.57499878507326 Z" stroke="#FFFFFF" stroke-width="1" stroke-linejoin="round" transform="translate(0,0)"></path><path fill="#8085e9" d="M 136.2799475028879 276.74905892619427 A 177.5 177.5 0 0 1 136.17486061551372 99.43320885713781 L 239.23770400311952 158.77295892285548 A 58.575 58.575 0 0 0 239.272382675953 217.28718944564412 Z" stroke="#FFFFFF" stroke-width="1" stroke-linejoin="round" transform="translate(0,0)"></path><path fill="#f15c80" d="M 136.26350430445873 99.27942802678275 A 177.5 177.5 0 0 1 289.7534560609923 10.500171222375144 L 289.9186405001275 129.4250565033838 A 58.575 58.575 0 0 0 239.2669564204714 158.7222112488383 Z" stroke="#FFFFFF" stroke-width="1" stroke-linejoin="round" transform="translate(0,0)"></path></g><g class="highcharts-markers highcharts-series-0"  transform="translate(10,10) scale(1 1)"></g></g><text x="300" text-anchor="middle" class="highcharts-title"  style="color:#333333;font-size:18px;fill:#333333;width:536px;" y="198">Agile</text><g class="highcharts-data-labels highcharts-series-0"  visibility="visible" transform="translate(10,10) scale(1 1)" opacity="1"><g  style="" transform="translate(312,67)"><text x="5"  style="font-size:11px;font-weight:bold;color:white;text-shadow:0px 1px 2px black;fill:white;text-rendering:geometricprecision;" y="16"><tspan>Project</tspan><tspan x="5" dy="14">Management</tspan></text></g><g  style="" transform="translate(386,177)"><text x="5"  style="font-size:11px;font-weight:bold;color:white;text-shadow:0px 1px 2px black;fill:white;text-rendering:geometricprecision;" y="16"><tspan>Business,</tspan><tspan x="5" dy="14">Products</tspan></text></g><g  style="" transform="translate(311,288)"><text x="5"  style="font-size:11px;font-weight:bold;color:white;text-shadow:0px 1px 2px black;fill:white;text-rendering:geometricprecision;" y="16"><tspan>Communication,</tspan><tspan x="5" dy="14">Organization</tspan></text></g><g  style="" transform="translate(199,288)"><text x="5"  style="font-size:11px;font-weight:bold;color:white;text-shadow:0px 1px 2px black;fill:white;text-rendering:geometricprecision;" y="16"><tspan>DevOps</tspan></text></g><g  style="" transform="translate(115,178)"><text x="5"  style="font-size:11px;font-weight:bold;color:white;text-shadow:0px 1px 2px black;fill:white;text-rendering:geometricprecision;" y="16"><tspan>IT Architecture</tspan></text></g><g  style="" transform="translate(198,67)"><text x="0"  style="font-size:11px;font-weight:bold;color:white;text-shadow:0px 1px 2px black;fill:white;text-rendering:geometricprecision;" y="10"><tspan>Quality,</tspan><tspan x="5" dy="14">Craftsmanship</tspan></text></g></g><g class="highcharts-legend" ><g ><g></g></g></g><g class="highcharts-tooltip"  style="cursor:default;padding:0;pointer-events:none;white-space:nowrap;" transform="translate(0,-9999)"><path fill="none" d="M 3.5 0.5 L 13.5 0.5 C 16.5 0.5 16.5 0.5 16.5 3.5 L 16.5 13.5 C 16.5 16.5 16.5 16.5 13.5 16.5 L 3.5 16.5 C 0.5 16.5 0.5 16.5 0.5 13.5 L 0.5 3.5 C 0.5 0.5 0.5 0.5 3.5 0.5"  stroke="black" stroke-opacity="0.049999999999999996" stroke-width="5" transform="translate(1, 1)"></path><path fill="none" d="M 3.5 0.5 L 13.5 0.5 C 16.5 0.5 16.5 0.5 16.5 3.5 L 16.5 13.5 C 16.5 16.5 16.5 16.5 13.5 16.5 L 3.5 16.5 C 0.5 16.5 0.5 16.5 0.5 13.5 L 0.5 3.5 C 0.5 0.5 0.5 0.5 3.5 0.5"  stroke="black" stroke-opacity="0.09999999999999999" stroke-width="3" transform="translate(1, 1)"></path><path fill="none" d="M 3.5 0.5 L 13.5 0.5 C 16.5 0.5 16.5 0.5 16.5 3.5 L 16.5 13.5 C 16.5 16.5 16.5 16.5 13.5 16.5 L 3.5 16.5 C 0.5 16.5 0.5 16.5 0.5 13.5 L 0.5 3.5 C 0.5 0.5 0.5 0.5 3.5 0.5"  stroke="black" stroke-opacity="0.15" stroke-width="1" transform="translate(1, 1)"></path><path fill="rgb(249, 249, 249)" fill-opacity=" .85" d="M 3.5 0.5 L 13.5 0.5 C 16.5 0.5 16.5 0.5 16.5 3.5 L 16.5 13.5 C 16.5 16.5 16.5 16.5 13.5 16.5 L 3.5 16.5 C 0.5 16.5 0.5 16.5 0.5 13.5 L 0.5 3.5 C 0.5 0.5 0.5 0.5 3.5 0.5"></path><text x="8"  style="font-size:12px;color:#333333;fill:#333333;" y="20"></text></g></svg>
